# xmcd CD database file
#
# Track frame offsets:
#	150
#	17681
#	34601
#	54159
#	76196
#	96611
#	115870
#	132176
#	150018
#	168569
#	187441
#	207217
#	226321
#
# Disc length: 3368 seconds
#
# Revision: 1
# Processed by: cddbd v1.5.2PL0 Copyright (c) Steve Scherf et al.
# Submitted via: CDex 1.70beta2
#
DISCID=9f0d260d
DTITLE=Trampled Under Foot - Badlands
DYEAR=2013
DGENRE=Blues
TTITLE0=Bad Bad Feeling
TTITLE1=Dark Of The Night
TTITLE2=Don't Want No Woman
TTITLE3=Mary
TTITLE4=Badlands
TTITLE5=You Never Really Loved Me
TTITLE6=Pain In My Mind
TTITLE7=I Didn't Try
TTITLE8=Desperate Heart
TTITLE9=Down To The River
TTITLE10=Home To You
TTITLE11=Two Go Down
TTITLE12=It's A Man's Man's Man's World
EXTD=YEAR: 2013
EXTT0=
EXTT1=
EXTT2=
EXTT3=
EXTT4=
EXTT5=
EXTT6=
EXTT7=
EXTT8=
EXTT9=
EXTT10=
EXTT11=
EXTT12=
PLAYORDER=
